<?xml version="1.0" encoding="UTF-8"?>
<svg id="Calque_1" data-name="Calque 1" xmlns="http://www.w3.org/2000/svg" version="1.1" viewBox="0 0 416.7 416.7">
  <defs>
    <style>
      .cls-1 {
        fill: #000;
      }

      .cls-1, .cls-2 {
        stroke-width: 0px;
      }

      .cls-2 {
        fill: #753ece;
      }
    </style>
  </defs>
  <circle class="cls-1" cx="208.3" cy="208.3" r="208.3"/>
  <g>
    <g>
      <path class="cls-2" d="M331.4,259.1c0,.7,0,3,0,3.2,0,4.8,0,9.3,0,14.1,0,.7,0,1.6-.1,1.7,0,0-1.8.7-2.5.9-5.6,1.4-11.1,2.9-16.8,4-8,1.6-16.1,2.1-24.2,2-13.8-.2-25.8-5.2-36.1-14.4-11.6-10.3-18.4-23.3-21.7-38.3-.4-1.7-.9-4.3-1.2-6,2.1,0,11.2,0,14.5,0,.1,2.3.4,5,.8,7.3,1.5,9.3,4,18.2,8.5,26.5,4.6,8.4,10.5,15.1,19.5,19,4.5,2,9,2.9,13.9,3.4,9.6.9,18.7-.8,27-5.5,6.2-3.5,11.4-8.3,15.7-14,.5-.6,2-3.2,2.6-3.9h0Z"/>
      <path class="cls-2" d="M148.6,226.5c4.6,0,10.6,0,15.2,0,.4,0,1.6,0,1.7,0,.3.1,1.2,1.4,1.7,2.2,1.7,2.4,2.7,5.5,3.3,8.3,2.2,11.3.2,21.6-6.9,30.9-5.1,6.7-12.4,10.8-20.4,13.2-9.6,3-19.8,3.9-29.7,2.9-13-1.2-25.8-5.8-36.4-13.9-.8-.6-1.6-1.2-1.8-1.5,0,0,0-1.9,0-3.1,0-4.8.2-10.8.2-16.1.7,1,1.5,2.4,1.9,3,5.4,8,11.7,15.2,19.6,20.8,10.1,7,21,9.6,33.2,8.7,4.9-.4,9.6-1,14.1-3.2,9.9-4.7,16.4-12.1,18.6-22.9,1.5-7.6-.6-14-5.6-19.8-2.6-3-5.4-5.4-8.8-7.5-.8-.5-2.7-1.5-3.5-2h3.5Z"/>
      <path class="cls-2" d="M310.5,187.4c1.1-.5,2.7-1.5,3.2-1.9,1.8-1.3,3.6-2.5,5.2-4,5.3-4.7,7.3-10.5,5.5-17.6-2-8.1-6.7-14.1-14.3-17.7-4.8-2.3-9.8-2.8-14.9-3.4-9.2-1.1-17.7,1.7-25.5,6.2-8.5,4.9-14.5,11.7-19.1,20.4-2.6,4.9-4.2,9.7-5.6,15.1-.4,1.4-.6,2.8-.6,2.8-.1,0-1.9,0-2.9,0-2.4,0-4.7,0-7.1,0-.7,0-1.9,0-2.9,0,.3-1.1.9-2.5,1.1-3.3,8.1-23.1,23.2-36.3,47.1-41.5,11.5-2.2,23.9-1.5,34.7,2.9,4.2,1.7,8.4,4.2,11.4,7.6,3.6,4.1,5.6,9.6,5.9,15,.3,5.9-1.1,11.3-3.1,16.7-.5,1.2-1.2,2.6-1.2,2.6-.1,0-1.6,0-2.6,0-4.2,0-9.5.1-14.3.1h0Z"/>
      <path class="cls-2" d="M163.1,165.2c-2.1-2.8-4.1-6.5-6.3-8.9-6.9-7.6-15.6-11.9-25.7-13-10.8-1.3-21.2.3-31.2,4.5-6,2.6-10.3,6.5-13,12.7-2.1,4.9-2.4,10.1-1.5,15.3.6,3.1,1.3,6.3,2.5,9.2.2.6.7,1.6,1,2.5h-12.9c-.2-1.1-.4-2.9-.6-4-.6-6.5-.1-13,2.1-19.2,2.9-8.2,8.6-14.1,16.4-17.8,6.2-2.9,13.1-4.5,20-4.9,3.2-.2,6.2-.4,9.4-.4,8.6,0,17.2,1.1,25.6,2.7,4.1.8,7.9,1.8,11.9,2.6.6.1,2.2.7,2.2.7,0,.1,0,1.6,0,2.3,0,4.9,0,10.7,0,15.8h0Z"/>
      <path class="cls-2" d="M284.3,226.4c2.6,0,6.2-.1,8.2,0,.1,0,.6,1.4.8,1.6,1.2,2.4,3.3,4.9,5,7.1-5-1.3-10.9-3.8-14-8.7h0Z"/>
      <rect class="cls-2" x="199.1" y="109.7" width="1.6" height="58.2"/>
      <rect class="cls-2" x="199.5" y="247.1" width="1.7" height="59.8"/>
    </g>
    <g>
      <path class="cls-2" d="M37.8,211.3c0,3.2-2.1,6.9-8.2,6.9s-4.4-.6-5.7-1.4l-.7-.5,1.3-4.2.9.5c1.3.8,2.9,1.2,4.4,1.2s3.5-.9,3.5-2.3-.2-1.8-3.3-2.9c-2.6-.9-6.1-2.6-6.1-6.8s3.1-6.6,7.6-6.6,4.2.7,5,1.1l.8.4-1.5,4.2-.8-.4c-.8-.4-2-.9-3.6-.9s-3,1-3,1.9.6,1.7,3.5,2.8c2.9,1.1,5.9,2.8,5.9,7h0Z"/>
      <path class="cls-2" d="M54.2,195.2c-5.9,0-10,4.8-10,11.7s4,11.3,9.7,11.3,10-4.7,10-11.7-4-11.3-9.7-11.3h0ZM54,199.6c3.7,0,5.4,3.6,5.4,7s-1.7,7.2-5.4,7.2-5.4-3.6-5.4-7,1.4-7.2,5.4-7.2Z"/>
      <path class="cls-2" d="M95.1,217.9h-4.2l-.5-9.9c0-1-.1-2.2-.2-3.3-.3.9-.6,1.7-.9,2.7l-3.6,10.4h-3.1l-3.3-10.3c-.3-.9-.5-1.7-.8-2.4,0,1-.1,2.1-.2,3.1l-.6,9.7h-4.2l1.5-22.3h4.6l3.5,10.4c.5,1.4.8,2.7,1.2,3.8.3-1.1.7-2.4,1.2-3.8l3.6-10.4h4.6l1.3,22.3h0Z"/>
      <path class="cls-2" d="M116,205.9c1.2-1.1,1.9-2.6,1.9-4.3s-.7-3.5-2-4.5c-1.3-1.1-3.1-1.6-5.7-1.6s-3.4.2-4.6.4l-.7.2v21.7h.8c.6.2,2,.4,3.9.4,3.3,0,5.6-.7,7.1-2.1,1.3-1.3,1.9-3,1.9-4.9s-1.2-4.2-2.6-5.2h0ZM110.3,213.8c-.4,0-.8,0-1.2,0v-5.5h1.1c1.2,0,4,.3,4,2.8s-2.5,2.8-3.9,2.8h0ZM109.1,199.7c.4,0,.8,0,1.3,0,3.3,0,3.3,1.6,3.3,2.2,0,1.3-1.3,2.2-3.2,2.2h-1.3v-4.3h0Z"/>
      <path class="cls-2" d="M137.6,195.2c-5.7,0-9.7,4.8-9.7,11.7s3.9,11.3,9.4,11.3,9.7-4.7,9.7-11.7-3.9-11.3-9.4-11.3h0ZM137.5,199.6c3.5,0,5.1,3.6,5.1,7s-1.6,7.2-5.1,7.2-5.1-3.6-5.1-7,1.3-7.2,5.1-7.2Z"/>
      <path class="cls-2" d="M169,211.3c0,3.2-2,6.9-7.6,6.9s-4.1-.6-5.3-1.4l-.7-.5,1.2-4.3.9.6c1.1.7,2.7,1.2,4,1.2s3.1-.6,3.1-2.3-.2-1.8-3-2.9c-1.4-.5-5.7-2.1-5.7-6.8s2.9-6.6,7.1-6.6,3.9.7,4.6,1.1l.8.5-1.4,4.2-.8-.5c-.7-.4-1.8-.9-3.3-.9s-2.7.9-2.7,1.9.5,1.7,3.2,2.8c2.7,1.1,5.5,2.8,5.5,7h0Z"/>
      <path class="cls-2" d="M207.6,212.5l1,4.2-.7.4c-.9.5-2.8,1.1-5.2,1.1-6,0-9.9-4.4-9.9-11.3s4.3-11.7,10.4-11.7,4.2.7,4.7,1l.7.4-1.1,4.2-.9-.5c-.5-.3-1.6-.7-3.3-.7-3.9,0-6.2,2.7-6.2,7.2s2.2,6.9,6.1,6.9,2.6-.3,3.5-.7l.9-.5h0Z"/>
      <path class="cls-2" d="M232.2,216.2c-.4-.7-.9-3.3-1.3-5.2-.3-1.6-.9-2.8-1.7-3.7,1.6-1.2,2.5-3.1,2.5-5.3s-.7-3.6-1.8-4.7c-1.3-1.3-3.2-1.9-6-1.9s-3.6.2-4.8.4l-.8.2v21.9h4.2v-8.7h1.4c1.8,0,2.5.8,2.9,3.1.7,3.1,1,4.5,1.4,5.1l.3.5h4.6l-.9-1.7h0ZM227.5,202.3c0,2-1.7,2.7-3.4,2.7h-1.6v-5.2c.4,0,.9,0,1.5,0,2.3,0,3.4.9,3.4,2.6h0Z"/>
      <polygon class="cls-2" points="254.3 213.5 254.3 217.9 241.9 217.9 241.9 195.6 253.9 195.6 253.9 200 246.1 200 246.1 204.1 253.5 204.1 253.5 208.5 246.1 208.5 246.1 213.5 254.3 213.5"/>
      <path class="cls-2" d="M274.2,195.6h-4.1l-7,22.3h4.4l1.9-6.3h5.3l2,6.3h4.5l-7-22.3h0ZM270.6,207.3l1.3-4.3c0-.1,0-.3.1-.4,0,.1,0,.3.1.5l1.3,4.2h-2.9Z"/>
      <polygon class="cls-2" points="302.4 195.6 302.4 200 296.3 200 296.3 217.9 291.9 217.9 291.9 200 285.8 200 285.8 195.6 302.4 195.6"/>
      <rect class="cls-2" x="310.7" y="195.6" width="3.9" height="22.3"/>
      <path class="cls-2" d="M334,195.2c-5.5,0-9.4,4.8-9.4,11.7s3.8,11.3,9.1,11.3,9.4-4.7,9.4-11.7-3.8-11.3-9.1-11.3h0ZM333.9,213.9c-3.4,0-5-3.6-5-7s1.3-7.2,5-7.2,5,3.6,5,7-1.5,7.2-5,7.2Z"/>
      <path class="cls-2" d="M369.7,195.6v22.3h-3.8l-6.3-10.6c-.7-1.2-1.3-2.3-1.9-3.3,0,1.3,0,2.6,0,4.2v9.7h-4.1v-22.3h4l6.4,10.6c.6,1,1.1,1.9,1.6,2.9,0-1.3,0-2.6,0-3.9v-9.5h4.1,0Z"/>
      <path class="cls-2" d="M393.5,211.3c0,3.2-2,6.9-7.7,6.9s-4.2-.6-5.4-1.4l-.7-.5,1.2-4.3.9.6c1.2.7,2.7,1.2,4.1,1.2s3.2-.6,3.2-2.3-.2-1.8-3-2.9c-1.4-.5-5.8-2.1-5.8-6.8s3-6.6,7.2-6.6,4,.7,4.7,1.1l.8.4-1.4,4.2-.8-.5c-.7-.4-1.9-.9-3.4-.9s-2.8,1-2.8,1.9.5,1.7,3.3,2.8c2.8,1.1,5.6,2.8,5.6,7h0Z"/>
    </g>
  </g>
</svg>